<?xml version="1.0" standalone="no"?>
<!DOCTYPE svg PUBLIC "-//W3C//DTD SVG 20010904//EN"
 "http://www.w3.org/TR/2001/REC-SVG-20010904/DTD/svg10.dtd">
<svg version="1.0" xmlns="http://www.w3.org/2000/svg"
 width="577.000000pt" height="577.000000pt" viewBox="0 0 577.000000 577.000000"
 preserveAspectRatio="xMidYMid meet">
<metadata>
Created by potrace 1.14, written by Peter Selinger 2001-2017
</metadata>
<g transform="translate(0.000000,577.000000) scale(0.100000,-0.100000)"
fill="#000000" stroke="none">
<path d="M2291 5209 c-16 -10 -38 -33 -47 -51 -19 -37 -43 -130 -44 -170 0
-19 -5 -28 -16 -28 -48 0 -424 -160 -519 -221 -16 -10 -37 -22 -45 -26 -44
-20 -275 -200 -341 -265 -9 -10 -46 -18 -99 -22 -201 -17 -328 -74 -385 -171
-48 -82 -29 -172 59 -272 42 -48 43 -56 7 -153 -20 -56 -22 -66 -40 -170 -34
-190 -32 -388 4 -573 8 -43 15 -83 15 -88 0 -5 -26 -22 -57 -37 -64 -30 -80
-57 -40 -68 21 -5 54 5 109 33 7 4 58 -102 58 -122 0 -6 -12 -18 -26 -25 -37
-20 -48 -45 -28 -65 15 -14 19 -14 51 5 34 20 36 20 49 3 7 -10 14 -21 14 -26
0 -4 12 -26 27 -50 15 -23 34 -54 43 -68 21 -38 84 -112 162 -193 37 -38 66
-72 63 -76 -2 -3 -7 -31 -10 -61 -3 -30 -10 -80 -14 -111 -11 -84 -6 -513 7
-583 6 -33 14 -74 17 -91 2 -17 11 -49 19 -72 8 -23 13 -42 11 -42 -10 0 68
-209 99 -263 39 -69 120 -158 181 -199 33 -22 204 -107 280 -138 26 -11 83
-28 115 -34 14 -3 36 -7 50 -10 14 -3 66 -7 115 -10 50 -4 122 -9 160 -12 82
-7 474 -7 590 0 44 3 175 8 290 11 259 6 504 14 610 20 78 4 79 3 116 -30 21
-19 53 -41 71 -51 18 -9 40 -22 48 -29 8 -7 42 -22 75 -33 144 -49 299 9 350
131 24 57 18 162 -12 227 -23 51 -23 52 -5 69 124 108 164 148 219 216 35 44
70 87 77 95 33 41 166 261 166 276 0 2 16 37 36 79 20 42 37 81 38 88 2 7 8
24 14 38 5 14 13 39 16 55 2 16 7 40 10 54 13 56 37 221 35 237 -1 10 2 26 6
36 13 30 -4 257 -25 336 -5 20 -11 50 -14 66 -13 80 -17 99 -21 105 -2 4 -7
22 -10 41 -8 44 -24 111 -55 229 -36 134 -119 369 -164 465 -76 161 -156 308
-188 345 -10 11 -18 23 -18 26 0 6 -1 8 -131 174 -102 131 -98 126 -164 205
-85 102 -107 126 -191 209 -115 116 -225 215 -296 268 -20 15 -42 34 -50 41
-17 18 -135 97 -143 97 -4 0 -19 8 -33 18 -81 55 -342 150 -562 204 -148 37
-264 41 -310 13 -6 -3 -10 -2 -10 3 0 5 -33 43 -74 83 -55 56 -88 80 -132 97
-80 31 -125 34 -163 11z"/>
</g>
</svg>
